<svg
  viewBox="0 0 24 24.850205"
  xmlns="http://www.w3.org/2000/svg"
>
  <linearGradient id="imagotipo-lg01">
    <stop style="stop-color:#c7c6c6;" offset="0.18803471" />
    <stop style="stop-color:#393939;" offset="0.51693004" />
  </linearGradient>
  <linearGradient id="imagotipo-lg02">
    <stop style="stop-color:#28caf6;" offset="0" />
    <stop style="stop-color:#0558ed;" offset="0.42889395" />
    <stop style="stop-color:#1c6cf7;" offset="0.42889395" />
    <stop style="stop-color:#2facef;" offset="1" />
  </linearGradient>
  <linearGradient id="imagotipo-lg03">
    <stop style="stop-color:#545454;" offset="0.36818916" />
    <stop style="stop-color:#a5a5a6;" offset="0.50112867" />
    <stop style="stop-color:#cacac9;" offset="0.60270876" />
  </linearGradient>
  <linearGradient id="imagotipo-lg04">
    <stop style="stop-color:#acacac;" offset="0.21583647" />
    <stop style="stop-color:#dadada;" offset="0.50790066" />
    <stop style="stop-color:#b1b1b0;" offset="1" />
  </linearGradient>
  <linearGradient
    id="imagotipo-lg05"
    href="#imagotipo-lg01"
    gradientUnits="userSpaceOnUse"
    gradientTransform="matrix(-0.06836178,0,0,-0.06839821,24.851852,45.934451)"
    x1="170.79892"
    y1="413.81696"
    x2="314.37335"
    y2="567.78168"
  />
  <linearGradient
    id="imagotipo-lg06"
    href="#imagotipo-lg02"
    gradientUnits="userSpaceOnUse"
    gradientTransform="matrix(0.07263527,0,0,0.0749329,-3.1748021,-28.861499)"
    x1="173.52934"
    y1="411.35849"
    x2="311.64304"
    y2="570.24011"
  />
  <linearGradient
    id="imagotipo-lg07"
    href="#imagotipo-lg03"
    gradientUnits="userSpaceOnUse"
    gradientTransform="matrix(-0.06860528,0,0,-0.06735256,24.936673,45.493852)"
    x1="172.15344"
    y1="412.57578"
    x2="313.01892"
    y2="569.02277"
  />
  <linearGradient
    id="imagotipo-lg08"
    href="#imagotipo-lg04"
    gradientUnits="userSpaceOnUse"
    gradientTransform="matrix(0.02216984,0,0,0.03236481,17.543084,-20.772472)"
    x1="-226.81677"
    y1="1264.5251"
    x2="-219.89868"
    y2="1396.53"
  />
  <linearGradient
    id="imagotipo-lg09"
    href="#imagotipo-lg04"
    gradientUnits="userSpaceOnUse"
    gradientTransform="matrix(0.02216984,0,0,0.03236481,17.543084,-20.772472)"
    x1="-226.81677"
    y1="1264.5251"
    x2="-219.89868"
    y2="1396.53"
  />
  <linearGradient
    id="imagotipo-lg10"
    href="#imagotipo-lg04"
    gradientUnits="userSpaceOnUse"
    gradientTransform="matrix(0.02216984,0,0,0.03236481,17.543084,-20.772472)"
    x1="-226.81677"
    y1="1264.5251"
    x2="-219.89868"
    y2="1396.53"
  />
  <linearGradient
    id="imagotipo-lg11"
    href="#imagotipo-lg04"
    gradientUnits="userSpaceOnUse"
    gradientTransform="matrix(0.02216984,0,0,0.03236481,17.543084,-20.772472)"
    x1="-226.81677"
    y1="1264.5251"
    x2="-219.89868"
    y2="1396.53"
  />
  <linearGradient
    id="imagotipo-lg12"
    href="#imagotipo-lg04"
    gradientUnits="userSpaceOnUse"
    gradientTransform="matrix(0.02216984,0,0,0.03236481,17.543084,-20.772472)"
    x1="-226.81677"
    y1="1264.5251"
    x2="-219.89868"
    y2="1396.53"
  />
  <path
    style="fill:url(#imagotipo-lg08);"
    d="m 21.166201,20.293147 q 0.130441,-0.05253 1.066019,-0.05253 h 0.42731 l 1.340398,0.0066 v 0.814236 l -1.371884,0.02627 q -1.371885,0.02626 -1.470841,0.08536 -0.15293,0.105062 -0.33285,0.413683 -0.179919,0.302057 -0.179919,0.466216 0,0.05253 1.26843,0.05253 h 1.27293 l -0.009,0.413685 -0.01349,0.420251 -1.259435,0.01314 q -0.764657,0.01314 -1.012045,0.02627 -0.247389,0.01314 -0.247389,0.05253 0,0.09193 0.112449,0.328321 0.116949,0.236389 0.202408,0.32832 0.009,0.0066 0.02249,0.02626 0.143934,0.157595 0.269879,0.196993 0.17992,0.05253 1.286422,0.07223 h 0.0045 0.0045 0.0045 0.0045 0.0045 0.0045 0.0045 0.0045 0.0045 0.0045 0.0045 0.0045 0.0045 0.0045 0.0045 0.0045 0.0045 0.0045 0.009 L 24,24.009743 v 0.807669 l -1.218951,0.0197 h -0.440805 q -0.697186,0 -0.967064,-0.04596 -0.269879,-0.04597 -0.481283,-0.183861 -0.283374,-0.196991 -0.526264,-0.636941 -0.238394,-0.439949 -0.310361,-0.906165 -0.03598,-0.203559 -0.03598,-0.485914 0,-0.663208 0.193411,-1.18852 0.143935,-0.374287 0.404818,-0.676342 0.260883,-0.302055 0.548755,-0.42025 z"
  />
  <path
    style="fill:url(#imagotipo-lg12);"
    d="m 13.274669,22.519159 -0.02699,-0.05253 q -0.03148,-0.0591 -0.08996,-0.170728 -0.05397,-0.118196 -0.103452,-0.216692 l -0.220403,-0.426817 -0.215901,0.420251 q -0.215904,0.433384 -0.215904,0.43995 0,0.0197 0.436304,0.0197 0.436305,0 0.436305,-0.01314 z M 11.79933,22.263071 q 1.00305,-1.989623 1.021041,-1.989623 0.01799,0 0.121446,0.21669 0.06297,0.131329 1.021043,2.035587 l 0.917587,1.818897 -0.08546,0.111628 q -0.02699,0.0394 -0.206906,0.249526 l -0.130443,0.137894 -0.256384,-0.499048 q -0.166424,-0.315188 -0.251887,-0.433382 -0.08546,-0.118197 -0.224898,-0.229825 -0.220401,-0.177294 -0.413814,-0.242957 -0.193413,-0.06566 -0.472288,-0.06566 -0.485783,0 -0.877106,0.288922 -0.116948,0.08536 -0.206908,0.203558 -0.08546,0.118196 -0.215902,0.367718 -0.05398,0.105063 -0.121445,0.223258 -0.06297,0.118198 -0.107952,0.196993 -0.04498,0.0788 -0.05398,0.0985 -0.02699,0.05253 -0.05398,0.05253 -0.03598,0 -0.215903,-0.190427 -0.08996,-0.0985 -0.152931,-0.18386 -0.05847,-0.09193 -0.04948,-0.118195 0.01799,-0.06566 1.016543,-2.048719 z m 4.217897,-2.074987 q 0.116948,-0.05253 1.695738,-0.05253 h 1.58329 l -0.01349,0.413682 -0.009,0.426819 q -0.526264,0.01314 -1.57879,0.03283 -1.052526,0.01314 -1.578792,0.0197 l -0.08996,0.118196 q -0.116946,0.157594 -0.116946,0.380852 0,0.269222 0.161925,0.426817 0.06297,0.0591 0.301367,0.0788 0.238391,0.0197 1.169475,0.0394 l 1.380878,0.02627 0.166425,0.137893 q 0.220401,0.18386 0.350843,0.512181 0.130441,0.32832 0.130441,0.676341 0,0.374285 -0.161927,0.735439 -0.161928,0.354585 -0.391324,0.505612 -0.121446,0.0788 -0.355342,0.09193 -0.233893,0.01314 -1.385376,0.0197 H 15.90028 15.666385 q -0.04498,0 -0.04498,-0.407117 v -0.407116 h 1.542807 q 1.533811,0 1.614776,-0.0591 0.19791,-0.14446 0.19791,-0.479347 0,-0.334886 -0.19791,-0.479348 -0.09896,-0.0591 -1.349395,-0.0591 -0.773652,0 -1.057023,-0.0197 -0.283373,-0.0197 -0.42731,-0.0788 -0.143936,-0.0591 -0.278874,-0.229827 -0.148433,-0.196992 -0.242892,-0.466214 -0.08096,-0.229824 -0.08096,-0.43995 0,-0.131327 0.0045,-0.21669 0.01799,-0.367721 0.121446,-0.623811 0.08096,-0.190425 0.24289,-0.374285 0.166427,-0.190424 0.305863,-0.249523 z"
  />
  <path
    style="fill:url(#imagotipo-lg11);"
    d="m 7.785922,20.319412 q 0.1304415,-0.0591 0.3958222,-0.07223 0.2698788,-0.0197 1.1649766,-0.0197 l 1.3628882,-0.0066 v 0.80767 q -0.449798,0.0066 -1.349394,0.0197 -0.8950979,0.01314 -1.3448961,0.0197 l -0.1799191,0.131327 q -0.1754213,0.137896 -0.2923687,0.321754 -0.076466,0.13133 -0.1349394,0.282356 -0.053976,0.151029 -0.053976,0.229824 0,0.02627 0.0045,0.03283 0.017992,0.0394 0.4048181,0.0394 h 0.1034528 q 0.2698789,-0.0066 1.2684303,-0.0066 l 0.7736527,0.0066 v 0.807668 H 7.30014 v 1.937092 l -0.2833724,-0.0131 -0.2923689,-0.0197 -0.009,-1.168821 v -0.25609 q 0,-0.925864 0.026988,-1.227919 0.06747,-0.636943 0.3553403,-1.149122 0.2923687,-0.51218 0.6881909,-0.696041 z"
  />
  <path
    style="fill:url(#imagotipo-lg10);"
    d="m 5.1459488,24.791137 v -4.675284 l 0.2878704,0.0197 0.2878709,0.01314 0.009,2.153781 v 0.912732 q 0,1.28045 -0.009,1.411778 l -0.02249,0.164161 z"
  />
  <path
    style="fill:url(#imagotipo-lg09);"
    d="m 3.1395898,21.284674 q -0.1214456,-0.09193 -0.2968668,-0.105062 -0.175421,-0.0197 -1.0615231,-0.03283 -0.2653808,-0.0066 -0.6387132,-0.0066 -0.55325139,0 -0.56674539,0.0591 -0.0134941,0.0394 -0.0134941,0.978396 v 0.380852 l 0.0134941,1.293583 H 1.754212 q 0.4632919,0 0.6612028,-0.0066 0.2024093,-0.0066 0.3958224,-0.01314 0.1934132,-0.01314 0.2698787,-0.0591 0.076466,-0.04597 0.1349395,-0.09193 0.058474,-0.05253 0.1484334,-0.170728 0.1709232,-0.23639 0.2338949,-0.446516 0.06747,-0.21669 0.071967,-0.558143 0,-0.840502 -0.5307614,-1.221354 z M 0,24.84367 v -4.622755 h 0.27887473 q 0.27887459,0 0.27887459,0.04596 0,0.04597 1.29541828,0.06567 l 1.2954179,0.0197 0.2248993,0.157594 q 0.3508424,0.242958 0.5757413,0.689473 0.2293969,0.439948 0.2923686,0.991527 0.017992,0.210125 0.017992,0.308621 0,0.62381 -0.242891,1.175389 -0.2383928,0.551578 -0.6342152,0.827368 l -0.233895,0.164159 -1.2954179,0.01314 q -0.8276283,0.01314 -1.06152324,0.03283 -0.23389504,0.01314 -0.23389504,0.0591 0,0.07223 -0.27887459,0.07223 z"
  />
  <path
    style="fill:url(#imagotipo-lg07);"
    d="m 15.065103,13.587913 c -2.30709,0.008 -3.284481,0.0043 -6.0488758,0.03229 L 9.0610082,6.1436178 7.0602676,6.1593287 C 4.7813853,8.3705753 4.8793155,8.3194543 2.4114353,10.678687 l -0.011436,7.697594 1.3407133,0.0036 -0.00296,0.759438 6.9846614,-9.68e-4 4.294163,-4.131834 z"
  />
  <path
    style="fill:url(#imagotipo-lg06);"
    d="m 7.3084951,5.6311983 8.1379599,-0.01907 0.0052,9.2301787 L 21.597506,8.6612824 21.6,0 12.91422,0.00716224 Z"
  />
  <path
    style="fill:url(#imagotipo-lg05);"
    d="m 15.039842,13.601261 c -2.2989,0.0081 -3.289797,0.0016 -6.0443816,0.02999 l -5.2584297,4.819163 -0.00886,0.749585 6.9598703,-0.03018 4.363818,-4.237962 z"
  />
</svg>