<svg
  viewBox="0 0 24 24"
  xmlns="http://www.w3.org/2000/svg"
>
  <linearGradient id="isotipo-lg01">
    <stop style="stop-color:#c7c6c6;" offset="0.18803471" />
    <stop style="stop-color:#393939;" offset="0.51693004" />
  </linearGradient>
  <linearGradient id="isotipo-lg02">
    <stop style="stop-color:#545454;" offset="0.36818916" />
    <stop style="stop-color:#a5a5a6;" offset="0.50112867" />
    <stop style="stop-color:#cacac9;" offset="0.60270876" />
  </linearGradient>
  <linearGradient id="isotipo-lg03">
    <stop style="stop-color:#28caf6;" offset="0" />
    <stop style="stop-color:#0558ed;" offset="0.42889395" />
    <stop style="stop-color:#1c6cf7;" offset="0.42889395" />
    <stop style="stop-color:#2facef;" offset="1" />
  </linearGradient>
  <linearGradient
    id="isotipo-lg05"
    href="#isotipo-lg03"
    gradientUnits="userSpaceOnUse"
    gradientTransform="matrix(0.09086276,0,0,0.09367391,-6.9818594,-36.084187)"
    x1="173.52934"
    y1="411.35849"
    x2="311.64304"
    y2="570.24011"
  />
  <linearGradient
    id="isotipo-lg04"
    href="#isotipo-lg02"
    gradientUnits="userSpaceOnUse"
    gradientTransform="matrix(-0.08582146,0,0,-0.0841977,28.184141,56.867813)"
    x1="172.15344"
    y1="412.57578"
    x2="313.01892"
    y2="569.02277"
  />
  <linearGradient
    id="isotipo-lg06"
    href="#isotipo-lg01"
    gradientUnits="userSpaceOnUse"
    gradientTransform="matrix(-0.08551686,0,0,-0.08550488,28.078141,57.418813)"
    x1="170.79892"
    y1="413.81696"
    x2="314.37335"
    y2="567.78168"
  />
  <path
    style="fill:url(#isotipo-lg04);"
    d="m 15.835141,16.981813 c -2.887,0.01 -4.108,0 -7.5670004,0.04 l 0.06,-9.3470005 -2.503,0.02 c -2.85,2.7640005 -2.728,2.7000005 -5.81499998,5.6490005 l -0.009999995,9.623 H 1.6771406 v 0.95 h 8.7380004 l 5.372,-5.165 z"
  />
  <path
    style="fill:url(#isotipo-lg05);"
    d="m 6.1321406,7.0358125 10.1800004,-0.02 V 18.553813 l 7.688,-7.727 V -1.875e-4 h -10.865 z"
  />
  <path
    style="fill:url(#isotipo-lg06);"
    d="m 15.804141,16.998813 c -2.877,0.01 -4.116,0 -7.5620004,0.04 l -6.578,6.024 -0.01,0.937 8.7070004,-0.04 5.459,-5.298 z"
  />
</svg>