<svg
  viewBox="0 0 121.66407 24.000488"
  xmlns="http://www.w3.org/2000/svg"
>
  <linearGradient id="logotipo-lg01">
    <stop style="stop-color:#acacac;" offset="0.21583647" />
    <stop style="stop-color:#dadada;" offset="0.50790066" />
    <stop style="stop-color:#b1b1b0;" offset="1" />
  </linearGradient>
  <linearGradient
    id="logotipo-lg02"
    href="#logotipo-lg01"
    gradientUnits="userSpaceOnUse"
    gradientTransform="matrix(0.11238554,0,0,0.16406693,88.931681,-207.27516)"
    x1="-226.81677"
    y1="1264.5251"
    x2="-219.89868"
    y2="1396.53"
  />
  <linearGradient
    id="logotipo-lg03"
    href="#logotipo-lg01"
    gradientUnits="userSpaceOnUse"
    gradientTransform="matrix(0.11238554,0,0,0.16406693,88.931681,-207.27516)"
    x1="-226.81677"
    y1="1264.5251"
    x2="-219.89868"
    y2="1396.53"
  />
  <linearGradient
    id="logotipo-lg04"
    href="#logotipo-lg01"
    gradientUnits="userSpaceOnUse"
    gradientTransform="matrix(0.11238554,0,0,0.16406693,88.931681,-207.27516)"
    x1="-226.81677"
    y1="1264.5251"
    x2="-219.89868"
    y2="1396.53"
  />
  <linearGradient
    id="logotipo-lg05"
    href="#logotipo-lg01"
    gradientUnits="userSpaceOnUse"
    gradientTransform="matrix(0.11238554,0,0,0.16406693,88.931681,-207.27516)"
    x1="-226.81677"
    y1="1264.5251"
    x2="-219.89868"
    y2="1396.53"
  />
  <linearGradient
    id="logotipo-lg06"
    href="#logotipo-lg01"
    gradientUnits="userSpaceOnUse"
    gradientTransform="matrix(0.11238554,0,0,0.16406693,88.931681,-207.27516)"
    x1="-226.81677"
    y1="1264.5251"
    x2="-219.89868"
    y2="1396.53"
  />
  <path
    style="font-size:239.63px;line-height:1.25;font-family:'Oblivion Future Free';text-align:center;letter-spacing:35px;text-anchor:middle;fill:url(#logotipo-lg02);stroke-width:1"
    d="m 15.915681,5.9251415 q -0.615,-0.466 -1.505,-0.5326 -0.889,-0.1 -5.3809994,-0.1665 -1.345,-0.033 -3.238,-0.033 -2.804,0 -2.873,0.2995 -0.07,0.1998 -0.07,4.9597995 v 1.9307 l 0.07,6.5575 h 5.975 q 2.3479994,0 3.3509994,-0.033 1.026,-0.033 2.007,-0.066 0.98,-0.067 1.368,-0.2996 0.388,-0.233 0.684,-0.466 0.296,-0.2663 0.752,-0.8655 0.867,-1.1983 1.186,-2.2635 0.342,-1.0985 0.365,-2.8294 0,-4.2607995 -2.691,-6.1913995 z M 6.8160534e-4,23.966741 V 0.53264149 H 1.4146816 q 1.413,0 1.413,0.233 0,0.233 6.567,0.33280001 l 6.5669994,0.1 1.14,0.7989 q 1.779,1.2316 2.919,3.4951 1.163,2.2303 1.482,5.0263995 0.09,1.0652 0.09,1.5645 0,3.1623 -1.231,5.9584 -1.209,2.7961 -3.215,4.1942 l -1.186,0.8321 -6.5669994,0.067 q -4.195,0.067 -5.381,0.1664 -1.186,0.067 -1.186,0.2996 0,0.3662 -1.413,0.3662 z"
  />
  <path
    style="font-size:239.63px;line-height:1.25;font-family:'Oblivion Future Free';text-align:center;letter-spacing:40px;text-anchor:middle;fill:url(#logotipo-lg03);stroke-width:1"
    d="M 26.086681,23.700441 V 4.1488523e-5 l 1.46,0.100000001477 1.459,0.067 0.05,10.91819951 v 4.6269 q 0,6.491 -0.05,7.1567 l -0.114,0.8322 z"
  />
  <path
    style="font-size:239.63px;line-height:1.25;font-family:'Oblivion Future Free';text-align:center;letter-spacing:-10px;text-anchor:middle;fill:url(#logotipo-lg04);stroke-width:1"
    d="m 39.469681,1.0319415 q 0.661,-0.29960001 2.007,-0.36620001 1.368,-0.1 5.905,-0.1 l 6.909,-0.033 V 4.6270415 q -2.28,0.033 -6.84,0.1 -4.538,0.067 -6.818,0.1 l -0.912,0.6657 q -0.889,0.6991 -1.482,1.6311 -0.388,0.6658 -0.684,1.4314 -0.274,0.7656 -0.274,1.165 0,0.1332 0.02,0.1664 0.09,0.1997995 2.052,0.1997995 h 0.524 q 1.369,-0.033 6.431,-0.033 l 3.921,0.033 v 4.0943 h -13.225 v 9.8197 l -1.436,-0.067 -1.482,-0.1 -0.05,-5.9251 v -1.2982 q 0,-4.6934 0.137,-6.2246 0.342,-3.2288995 1.801,-5.8252995 1.483,-2.5964 3.489,-3.5284 z"
  />
  <path
    style="font-size:239.63px;line-height:1.25;font-family:'Oblivion Future Free';text-align:center;letter-spacing:10px;text-anchor:middle;fill:url(#logotipo-lg05);stroke-width:1"
    d="m 67.293681,12.183141 -0.137,-0.2663 q -0.159,-0.2996 -0.456,-0.8655 -0.273,-0.5992 -0.524,-1.0984995 l -1.117,-2.1636 -1.095,2.1303 q -1.094,2.1969995 -1.094,2.2302995 0,0.1 2.211,0.1 2.212,0 2.212,-0.066 z m -7.479,-1.2982 q 5.085,-10.08599951 5.176,-10.08599951 0.09,0 0.616,1.09840001 0.319,0.6658 5.176,10.3189995 l 4.651,9.2206 -0.433,0.5658 q -0.137,0.1998 -1.049,1.265 l -0.661,0.699 -1.3,-2.5298 q -0.843,-1.5978 -1.277,-2.197 -0.433,-0.5991 -1.14,-1.165 -1.117,-0.8988 -2.097,-1.2317 -0.981,-0.3328 -2.395,-0.3328 -2.462,0 -4.446,1.4646 -0.593,0.4327 -1.049,1.0319 -0.433,0.5992 -1.094,1.8641 -0.274,0.5326 -0.616,1.1317 -0.319,0.5992 -0.547,0.9987 -0.228,0.3994 -0.274,0.4993 -0.137,0.2663 -0.273,0.2663 -0.183,0 -1.095,-0.9654 -0.456,-0.4993 -0.775,-0.932 -0.297,-0.466 -0.251,-0.5992 0.09,-0.3328 5.153,-10.3855 z m 21.382,-10.51879951 q 0.593,-0.2663 8.596,-0.2663 h 8.026 l -0.07,2.09710001 -0.05,2.1637 q -2.667,0.067 -8.003,0.1664 -5.336,0.067 -8.003,0.1 l -0.456,0.5991 q -0.593,0.7989 -0.593,1.9307 0,1.3648 0.821,2.1637 0.319,0.2995 1.527,0.3994 1.209,0.1 5.929,0.1997 l 7,0.1331995 0.843,0.699 q 1.118,0.932 1.779,2.5964 0.661,1.6644 0.661,3.4286 0,1.8973 -0.821,3.7281 -0.82,1.7975 -1.983,2.5631 -0.616,0.3995 -1.802,0.4661 -1.185,0.066 -7.023,0.1 h -6.977 -1.186 q -0.228,0 -0.228,-2.0638 v -2.0638 h 7.821 q 7.776,0 8.186,-0.2996 1.003,-0.7323 1.003,-2.4299 0,-1.6977 -1.003,-2.43 -0.501,-0.2996 -6.84,-0.2996 -3.922,0 -5.359,-0.1 -1.436,-0.1 -2.166,-0.3995 -0.729,-0.2996 -1.414,-1.165 -0.752,-0.9986 -1.231,-2.3634 -0.41,-1.1650995 -0.41,-2.2301995 0,-0.6658 0.02,-1.0985 0.09,-1.8641 0.615,-3.1623 0.411,-0.9653 1.231,-1.8974 0.844,-0.96530001 1.551,-1.26490001 z"
  />
  <path
    style="font-size:239.63px;line-height:1.25;font-family:'Oblivion Future Free';text-align:center;letter-spacing:0px;text-anchor:middle;fill:url(#logotipo-lg06);stroke-width:1"
    d="m 107.29868,0.89874149 q 0.661,-0.2663 5.404,-0.2663 h 2.166 l 6.795,0.033 V 4.7930415 l -6.955,0.1332 q -6.954,0.1331 -7.456,0.4327 -0.775,0.5326 -1.687,2.0971 -0.912,1.5312 -0.912,2.3634 0,0.2662995 6.43,0.2662995 h 6.453 l -0.05,2.0971 -0.07,2.1303 -6.385,0.067 q -3.876,0.067 -5.13,0.1332 -1.254,0.066 -1.254,0.2663 0,0.466 0.57,1.6643 0.593,1.1983 1.026,1.6644 0.04,0.033 0.114,0.1331 0.729,0.7989 1.368,0.9986 0.912,0.2663 6.521,0.3662 h 0.02 0.02 0.02 0.02 0.02 0.02 0.02 0.02 0.02 0.02 0.02 0.02 0.02 0.02 0.02 0.02 0.02 0.02 0.04 l 6.955,0.1331 v 4.0943 l -6.18,0.1 h -2.234 q -3.534,0 -4.902,-0.233 -1.369,-0.233 -2.44,-0.932 -1.437,-0.9987 -2.668,-3.2289 -1.209,-2.2302 -1.573,-4.5936 -0.183,-1.0319 -0.183,-2.4633 0,-3.3619995 0.981,-6.0248995 0.729,-1.8974 2.052,-3.4286 1.322,-1.5312 2.782,-2.13040001 z"
  />
</svg>