<?xml version="1.0" encoding="UTF-8"?>
<svg
   viewBox="0 0 9785.8627 575.99902"
   xmlns="http://www.w3.org/2000/svg"
>
   <linearGradient
      id="imagotipo2-lg01">
      <stop
         style="stop-color:#c7c6c6;"
         offset="0.18803471"
         id="stop1" />
      <stop
         style="stop-color:#393939;"
         offset="0.51693004"
         id="stop2" />
   </linearGradient>
   <linearGradient
      id="imagotipo2-lg02">
      <stop
         style="stop-color:#28caf6;"
         offset="0"
         id="stop3" />
      <stop
         style="stop-color:#0558ed;"
         offset="0.42889395"
         id="stop4" />
      <stop
         style="stop-color:#1c6cf7;"
         offset="0.42889395"
         id="stop5" />
      <stop
         style="stop-color:#2facef;"
         offset="1"
         id="stop6" />
   </linearGradient>
   <linearGradient
      id="imagotipo2-lg03">
      <stop
         style="stop-color:#545454;"
         offset="0.36818916"
         id="stop7" />
      <stop
         style="stop-color:#a5a5a6;"
         offset="0.50112867"
         id="stop8" />
      <stop
         style="stop-color:#cacac9;"
         offset="0.60270876"
         id="stop9" />
   </linearGradient>
   <linearGradient
      id="imagotipo2-lg04">
      <stop
         style="stop-color:#acacac;"
         offset="0.21583647"
         id="stop10" />
      <stop
         style="stop-color:#dadada;"
         offset="0.50790066"
         id="stop11" />
      <stop
         style="stop-color:#b1b1b0;"
         offset="1"
         id="stop12" />
   </linearGradient>
   <linearGradient
      id="imagotipo2-lg05"
      href="#imagotipo2-lg01"
      gradientUnits="userSpaceOnUse"
      gradientTransform="matrix(-0.08545223,0,0,-0.08549776,28.064692,57.418262)"
      x1="170.79892"
      y1="413.81696"
      x2="314.37335"
      y2="567.78168" />
   <linearGradient
      id="imagotipo2-lg06"
      href="#imagotipo2-lg02"
      gradientUnits="userSpaceOnUse"
      gradientTransform="matrix(0.09079409,0,0,0.09366612,-6.968618,-36.076672)"
      x1="173.52934"
      y1="411.35849"
      x2="311.64304"
      y2="570.24011" />
   <linearGradient
      id="imagotipo2-lg07"
      href="#imagotipo2-lg03"
      gradientUnits="userSpaceOnUse"
      gradientTransform="matrix(-0.0857566,0,0,-0.0841907,28.170722,56.867512)"
      x1="172.15344"
      y1="412.57578"
      x2="313.01892"
      y2="569.02277" />
   <linearGradient
      id="imagotipo2-lg08"
      href="#imagotipo2-lg04"
      gradientUnits="userSpaceOnUse"
      gradientTransform="matrix(0.06555868,0,0,0.09570635,80.876741,-116.41113)"
      x1="-226.81677"
      y1="1264.5251"
      x2="-219.89868"
      y2="1396.53" />
   <linearGradient
      id="imagotipo2-lg09"
      href="#imagotipo2-lg04"
      gradientUnits="userSpaceOnUse"
      gradientTransform="matrix(0.06555868,0,0,0.09570635,80.876741,-116.41113)"
      x1="-226.81677"
      y1="1264.5251"
      x2="-219.89868"
      y2="1396.53" />
   <linearGradient
      id="imagotipo2-lg10"
      href="#imagotipo2-lg04"
      gradientUnits="userSpaceOnUse"
      gradientTransform="matrix(0.06555868,0,0,0.09570635,80.876741,-116.41113)"
      x1="-226.81677"
      y1="1264.5251"
      x2="-219.89868"
      y2="1396.53" />
   <linearGradient
      id="imagotipo2-lg11"
      href="#imagotipo2-lg04"
      gradientUnits="userSpaceOnUse"
      gradientTransform="matrix(0.06555868,0,0,0.09570635,80.876741,-116.41113)"
      x1="-226.81677"
      y1="1264.5251"
      x2="-219.89868"
      y2="1396.53" />
   <linearGradient
      id="imagotipo2-lg12"
      href="#imagotipo2-lg04"
      gradientUnits="userSpaceOnUse"
      gradientTransform="matrix(0.06555868,0,0,0.09570635,80.876741,-116.41113)"
      x1="-226.81677"
      y1="1264.5251"
      x2="-219.89868"
      y2="1396.53" />
   <path
      style="fill:url(#imagotipo2-lg08);stroke-width:0.999986"
      d="m 91.590701,5.024482 q 0.38573,-0.15534 3.15234,-0.15534 h 1.2636 l 3.96371,0.0195 v 2.40778 l -4.05682,0.0777 q -4.05681,0.0776 -4.34944,0.25241 -0.45223,0.31069 -0.98427,1.22331 -0.53204,0.89322 -0.53204,1.37865 0,0.15534 3.75089,0.15534 h 3.76419 l -0.0266,1.22331 -0.0399,1.24273 -3.72429,0.0389 q -2.26118,0.0389 -2.99273,0.0777 -0.73156,0.0389 -0.73156,0.15534 0,0.27185 0.33253,0.97088 0.34583,0.69903 0.59854,0.97088 0.0266,0.0195 0.0665,0.0777 0.42563,0.46603 0.79807,0.58253 0.53204,0.15534 3.80409,0.2136 h 0.0133 0.0133 0.0133 0.0133 0.0133 0.0133 0.0133 0.0133 0.0133 0.0133 0.0133 0.0133 0.0133 0.0133 0.0133 0.0133 0.0133 0.0133 0.0266 l 4.05691,0.0776 v 2.38837 l -3.60457,0.0583 h -1.30351 q -2.06166,0 -2.85972,-0.13591 -0.79806,-0.13594 -1.42321,-0.5437 -0.83796,-0.58252 -1.55622,-1.88351 -0.70495,-1.30097 -0.91777,-2.67963 -0.1064,-0.60194 -0.1064,-1.4369 0,-1.96118 0.57194,-3.51458 0.42563,-1.10681 1.19709,-2.00002 0.77146,-0.89321 1.62273,-1.24273 z"
      id="path12" />
   <path
      style="fill:url(#imagotipo2-lg12);stroke-width:0.999986"
      d="m 68.254561,11.607042 -0.0798,-0.15534 q -0.0931,-0.17476 -0.26602,-0.50486 -0.1596,-0.34952 -0.30592,-0.64078 l -0.65176,-1.26214 -0.63844,1.24272 q -0.63845,1.28157 -0.63845,1.30099 0,0.0583 1.2902,0.0583 1.2902,0 1.2902,-0.0389 z m -4.36274,-0.75728 q 2.96613,-5.88354 3.01933,-5.88354 0.0532,0 0.35913,0.64078 0.18621,0.38836 3.01934,6.01946 l 2.71341,5.37868 -0.25272,0.3301 q -0.0798,0.11651 -0.61184,0.73787 l -0.38574,0.40777 -0.75815,-1.47574 q -0.49214,-0.93205 -0.74486,-1.28156 -0.25271,-0.34952 -0.66505,-0.67962 -0.65175,-0.52428 -1.22369,-0.71845 -0.57195,-0.19416 -1.39661,-0.19416 -1.43651,0 -2.5937,0.85437 -0.34583,0.25242 -0.61185,0.60195 -0.25271,0.34951 -0.63845,1.08738 -0.15962,0.31068 -0.35912,0.6602 -0.18621,0.34952 -0.31923,0.58253 -0.13301,0.23302 -0.15962,0.29127 -0.0798,0.15534 -0.15963,0.15534 -0.1064,0 -0.63845,-0.56311 -0.26602,-0.29128 -0.45223,-0.5437 -0.1729,-0.27185 -0.14632,-0.34951 0.0532,-0.19417 3.00603,-6.05829 z m 12.47279,-6.13597 q 0.34583,-0.15533 5.01449,-0.15533 h 4.68196 l -0.0399,1.2233 -0.0266,1.26215 q -1.55622,0.0389 -4.66866,0.0971 -3.11244,0.0389 -4.66866,0.0583 l -0.26602,0.34952 q -0.34583,0.46602 -0.34583,1.12622 0,0.79612 0.47883,1.26214 0.18621,0.17477 0.89118,0.23302 0.70495,0.0583 3.45827,0.11651 l 4.08341,0.0777 0.49213,0.40776 q 0.65175,0.5437 1.03749,1.51458 0.38572,0.97088 0.38572,2.00001 0,1.10681 -0.47883,2.17478 -0.47884,1.04855 -1.15719,1.49515 -0.35913,0.23302 -1.05079,0.27185 -0.69164,0.0388 -4.09671,0.0583 h -4.07011 -0.69166 q -0.13301,0 -0.13301,-1.20389 v -1.20388 h 4.56226 q 4.53565,0 4.77507,-0.17477 0.58524,-0.42718 0.58524,-1.41748 0,-0.9903 -0.58524,-1.41749 -0.29264,-0.17476 -3.99031,-0.17476 -2.28778,0 -3.12574,-0.0583 -0.83796,-0.0583 -1.2636,-0.23302 -0.42564,-0.17476 -0.82466,-0.67962 -0.43894,-0.58253 -0.71826,-1.37865 -0.23941,-0.67961 -0.23941,-1.30098 0,-0.38835 0.0133,-0.64078 0.0532,-1.08739 0.35913,-1.84468 0.2394,-0.5631 0.71825,-1.1068 0.49214,-0.5631 0.90447,-0.73786 z"
      id="path13" />
   <path
      style="fill:url(#imagotipo2-lg11);stroke-width:0.999986"
      d="m 52.023731,5.102142 q 0.38573,-0.17476 1.17049,-0.21359 0.79806,-0.0582 3.44496,-0.0582 l 4.03022,-0.0195 v 2.38837 q -1.33011,0.0195 -3.99031,0.0583 -2.64691,0.0388 -3.97701,0.0583 l -0.53204,0.38835 q -0.51874,0.40777 -0.86457,0.95146 -0.22612,0.38836 -0.39903,0.83496 -0.15961,0.44661 -0.15961,0.67962 0,0.0777 0.0133,0.0971 0.0532,0.11651 1.19709,0.11651 h 0.30592 q 0.79806,-0.0195 3.75089,-0.0195 l 2.28778,0.0195 v 2.38836 h -7.7146 v 5.7282 l -0.83797,-0.0387 -0.86456,-0.0583 -0.0266,-3.45633 v -0.75729 q 0,-2.73788 0.0798,-3.63109 0.19951,-1.88351 1.05078,-3.39808 0.86457,-1.51457 2.03506,-2.05827 z"
      id="path14" />
   <path
      style="fill:url(#imagotipo2-lg10);stroke-width:0.999986"
      d="M 44.217031,18.325532 V 4.500202 l 0.85127,0.0583 0.85126,0.0389 0.0266,6.36897 v 2.69905 q 0,3.78643 -0.0266,4.17478 l -0.0665,0.48545 z"
      id="path15" />
   <path
      style="fill:url(#imagotipo2-lg09);stroke-width:0.999986"
      d="m 38.284011,7.956532 q -0.35913,-0.27185 -0.87787,-0.31068 -0.51874,-0.0582 -3.13904,-0.0971 -0.78476,-0.0195 -1.88875,-0.0195 -1.63603,0 -1.67593,0.17477 -0.0399,0.11651 -0.0399,2.89322 v 1.12623 l 0.0399,3.82526 h 3.48487 q 1.37001,0 1.95525,-0.0195 0.59855,-0.0195 1.17049,-0.0389 0.57195,-0.0388 0.79806,-0.17476 0.22612,-0.13594 0.39903,-0.27185 0.17292,-0.15534 0.43894,-0.50486 0.50544,-0.69903 0.69165,-1.3204 0.19952,-0.64078 0.21282,-1.65049 0,-2.48546 -1.56953,-3.61168 z m -9.28412,10.52435 v -13.67 h 0.82466 q 0.82467,0 0.82467,0.13591 0,0.13594 3.83069,0.19419 l 3.8307,0.0583 0.66505,0.46602 q 1.03748,0.71845 1.70253,2.03885 0.67835,1.30097 0.86457,2.93205 0.0532,0.62137 0.0532,0.91263 0,1.84468 -0.71825,3.47576 -0.70496,1.63107 -1.87545,2.44661 l -0.69165,0.48544 -3.8307,0.0389 q -2.44739,0.0388 -3.13904,0.0971 -0.69165,0.0389 -0.69165,0.17476 0,0.2136 -0.82467,0.2136 z"
      id="path16" />
   <path
      style="fill:url(#imagotipo2-lg07);stroke-width:1"
      d="m 15.831262,16.985092 c -2.88386,0.01 -4.1056,0.005 -7.5611,0.0404 l 0.056,-9.34573 -2.50093,0.0196 c -2.8486,2.76406 -2.72619,2.70016 -5.81103999,5.6492 l -0.0143000061,9.62199 1.6758899961,0.004 -0.004,0.9493 8.73083,-0.001 5.3677,-5.16479 z"
      id="path17" />
   <path
      style="fill:url(#imagotipo2-lg06);stroke-width:1"
      d="m 6.135502,7.039202 10.17245,-0.0238 0.006,11.53772 7.68231,-7.72628 0.003,-10.82660001747 -10.85723,0.008999997 z"
      id="path18" />
   <path
      style="fill:url(#imagotipo2-lg05);stroke-width:1"
      d="m 15.799682,17.001782 c -2.87362,0.0101 -4.11224,0.002 -7.55547,0.0375 l -6.57304,6.02396 -0.0111,0.93698 8.69984,-0.0377 5.45477,-5.29745 z"
      id="path19" />
</svg>